<svg id="Rain_with_sun" data-name="Rain with sun" xmlns="http://www.w3.org/2000/svg" width="122" height="136.281" viewBox="0 0 122 136.281">
  <defs>
    <style>
      .cls-1 {
        fill: #ffe800;
        stroke: #f2ee77;
        stroke-width: 10px;
      }

      .cls-1, .cls-2 {
        stroke-linecap: round;
        stroke-linejoin: round;
      }

      .cls-1, .cls-2, .cls-4 {
        fill-rule: evenodd;
      }

      .cls-2 {
        fill: #8dc1ec;
        stroke: #8dc1ec;
        stroke-width: 5px;
      }

      .cls-3, .cls-4 {
        fill: #cccfd2;
      }
    </style>
  </defs>
  <path id="Ellipse_1_copy" data-name="Ellipse 1 copy" class="cls-1" d="M193.1,90.245c-16.736-11.775-21.394-33.983-10.4-49.6s33.467-18.736,50.2-6.961,21.393,33.984,10.4,49.6S209.834,102.02,193.1,90.245Z" transform="translate(-160 -21.531)"/>
  <path id="Shape_1_copy" data-name="Shape 1 copy" class="cls-2" d="M180.1,136.32l-0.81-.01,0.373-24.746,0.81,0.01Z" transform="translate(-160 -21.531)"/>
  <path id="Shape_1_copy_2" data-name="Shape 1 copy 2" class="cls-2" d="M204.1,155.32l-0.81-.01,0.373-24.746,0.81,0.01Z" transform="translate(-160 -21.531)"/>
  <path id="Shape_1_copy_3" data-name="Shape 1 copy 3" class="cls-2" d="M233.1,130.32l-0.81-.01,0.373-24.746,0.81,0.01Z" transform="translate(-160 -21.531)"/>
  <ellipse class="cls-3" cx="26" cy="69.969" rx="26" ry="17.5"/>
  <path id="Ellipse_2_copy_2" data-name="Ellipse 2 copy 2" class="cls-4" d="M227.806,77.47c11.7,0,21.194,6.387,21.194,14.265S239.511,106,227.806,106s-21.194-6.387-21.194-14.265S216.1,77.47,227.806,77.47Z" transform="translate(-160 -21.531)"/>
  <path id="Ellipse_2_copy_3" data-name="Ellipse 2 copy 3" class="cls-4" d="M211.976,58.263c15.477,0,28.024,8.448,28.024,18.869S227.453,96,211.976,96s-28.024-8.448-28.024-18.869S196.5,58.263,211.976,58.263Z" transform="translate(-160 -21.531)"/>
  <ellipse id="Ellipse_2_copy" data-name="Ellipse 2 copy" class="cls-3" cx="46" cy="84.969" rx="26" ry="17.5"/>
  <path id="Ellipse_2_copy_4" data-name="Ellipse 2 copy 4" class="cls-4" d="M260.806,48.47C272.511,48.47,282,54.857,282,62.735S272.511,77,260.806,77s-21.194-6.387-21.194-14.265S249.1,48.47,260.806,48.47Z" transform="translate(-160 -21.531)"/>
</svg>
